<svg xmlns="http://www.w3.org/2000/svg" viewBox="0 0 64 64">
  <rect width="64" height="64" rx="14" fill="#2f7d64"/>
  <path fill="#ffffff" d="M32 50.5a2.4 2.4 0 0 1-1.7-.7L17.9 37.4a11.1 11.1 0 0 1-3.3-7.9c0-6 4.8-10.9 10.7-10.9 2.6 0 5 1 6.7 2.6a9.6 9.6 0 0 1 6.7-2.6c5.9 0 10.7 4.9 10.7 10.9 0 3-.9 5.6-3.3 7.9L33.7 49.8a2.4 2.4 0 0 1-1.7.7Zm-6.7-26.9c-3.2 0-5.8 2.7-5.8 5.9 0 1.8.6 3.2 1.8 4.4L32 44.6 42.7 33.9a6 6 0 0 0 1.8-4.4c0-3.2-2.6-5.9-5.8-5.9-2.1 0-3.9 1.1-4.9 2.7a2.2 2.2 0 0 1-3.6 0 5.7 5.7 0 0 0-4.9-2.7Z"/>
  <circle cx="22" cy="20" r="4" fill="#dff3ec"/>
  <circle cx="42" cy="20" r="4" fill="#dff3ec"/>
</svg>
